<svg width="19" height="18" viewBox="0 0 19 18" fill="none" xmlns="http://www.w3.org/2000/svg">
<path d="M16.6594 0.514719L9.49998 7.67417L2.34053 0.514719C1.9744 0.148592 1.38083 0.148592 1.0147 0.514719C0.648574 0.880845 0.648574 1.47442 1.0147 1.84054L8.17416 9L1.0147 16.1595C0.648574 16.5256 0.648574 17.1192 1.0147 17.4853C1.38083 17.8514 1.9744 17.8514 2.34053 17.4853L9.49998 10.3258L16.6594 17.4853C17.0256 17.8514 17.6191 17.8514 17.9853 17.4853C18.3514 17.1192 18.3514 16.5256 17.9853 16.1595L10.8258 9L17.9853 1.84054C18.3514 1.47442 18.3514 0.880845 17.9853 0.514719C17.6191 0.148592 17.0256 0.148593 16.6594 0.514719Z" fill="white"/>
</svg>
